<?xml version="1.0" standalone="no"?>
<!DOCTYPE svg PUBLIC "-//W3C//DTD SVG 20010904//EN"
 "http://www.w3.org/TR/2001/REC-SVG-20010904/DTD/svg10.dtd">
<svg version="1.0" xmlns="http://www.w3.org/2000/svg"
 width="376.000000pt" height="376.000000pt" viewBox="0 0 376.000000 376.000000"
 preserveAspectRatio="xMidYMid meet">
<metadata>
Created by potrace 1.11, written by Peter Selinger 2001-2013
</metadata>
<g transform="translate(0.000000,376.000000) scale(0.100000,-0.100000)"
fill="#000000" stroke="none">
<path d="M1660 3740 c0 -19 -7 -20 -100 -20 -93 0 -100 -1 -100 -20 0 -13 -7
-20 -20 -20 -13 0 -20 -7 -20 -20 0 -17 -7 -20 -40 -20 -33 0 -40 -3 -40 -20
0 -13 -7 -20 -20 -20 -13 0 -20 -7 -20 -20 0 -17 -7 -20 -40 -20 -33 0 -40 -3
-40 -20 0 -13 -7 -20 -20 -20 -13 0 -20 -7 -20 -20 0 -13 -7 -20 -20 -20 -13
0 -20 -7 -20 -20 0 -13 -7 -20 -20 -20 -13 0 -20 -7 -20 -20 0 -13 -7 -20 -20
-20 -13 0 -20 -7 -20 -20 0 -17 -7 -20 -40 -20 l-40 0 0 -40 c0 -33 -3 -40
-20 -40 -13 0 -20 -7 -20 -20 0 -13 -7 -20 -20 -20 -13 0 -20 -7 -20 -20 0
-13 -7 -20 -20 -20 -17 0 -20 -7 -20 -40 0 -33 -3 -40 -20 -40 -13 0 -20 -7
-20 -20 0 -13 -7 -20 -20 -20 -17 0 -20 -7 -20 -40 0 -33 -3 -40 -20 -40 -17
0 -20 -7 -20 -40 0 -33 -3 -40 -20 -40 -17 0 -20 -7 -20 -40 0 -33 -3 -40 -20
-40 -18 0 -20 -7 -20 -60 0 -53 -2 -60 -20 -60 -19 0 -20 -7 -20 -260 0 -253
1 -260 20 -260 19 0 20 -7 20 -120 l0 -120 -60 0 c-53 0 -60 -2 -60 -20 0 -13
-7 -20 -20 -20 -18 0 -20 -7 -20 -60 0 -53 -2 -60 -20 -60 -19 0 -20 -7 -20
-120 0 -113 1 -120 20 -120 19 0 20 -7 20 -100 0 -93 1 -100 20 -100 18 0 20
-7 20 -60 0 -53 2 -60 20 -60 13 0 20 -7 20 -20 0 -13 7 -20 20 -20 13 0 20
-7 20 -20 0 -13 7 -20 20 -20 13 0 20 -7 20 -20 0 -17 7 -20 40 -20 33 0 40
-3 40 -20 0 -17 7 -20 40 -20 33 0 40 -3 40 -20 0 -13 7 -20 20 -20 17 0 20 7
20 40 0 33 3 40 20 40 13 0 20 -7 20 -20 0 -13 7 -20 20 -20 19 0 20 -7 20
-140 0 -133 1 -140 20 -140 18 0 20 -7 20 -60 0 -53 2 -60 20 -60 17 0 20 -7
20 -40 0 -33 3 -40 20 -40 17 0 20 -7 20 -40 0 -33 3 -40 20 -40 17 0 20 -7
20 -40 0 -33 3 -40 20 -40 13 0 20 -7 20 -20 0 -13 7 -20 20 -20 13 0 20 -7
20 -20 0 -13 7 -20 20 -20 13 0 20 -7 20 -20 0 -13 7 -20 20 -20 13 0 20 -7
20 -20 0 -13 7 -20 20 -20 13 0 20 -7 20 -20 0 -13 7 -20 20 -20 13 0 20 -7
20 -20 0 -17 7 -20 40 -20 33 0 40 -3 40 -20 0 -17 7 -20 40 -20 33 0 40 -3
40 -20 0 -17 7 -20 40 -20 33 0 40 -3 40 -20 0 -17 7 -20 40 -20 33 0 40 -3
40 -20 0 -19 7 -20 100 -20 93 0 100 -1 100 -20 0 -19 7 -20 200 -20 193 0
200 1 200 20 0 18 7 20 80 20 73 0 80 2 80 20 0 13 7 20 20 20 13 0 20 7 20
20 0 13 7 20 20 20 13 0 20 7 20 20 0 13 7 20 20 20 13 0 20 7 20 20 0 17 7
20 40 20 33 0 40 3 40 20 0 13 7 20 20 20 17 0 20 7 20 40 0 33 3 40 20 40 13
0 20 7 20 20 0 13 7 20 20 20 13 0 20 7 20 20 0 13 7 20 20 20 17 0 20 7 20
40 0 33 3 40 20 40 13 0 20 7 20 20 0 13 7 20 20 20 17 0 20 7 20 40 0 33 3
40 20 40 18 0 20 7 20 60 0 53 2 60 20 60 18 0 20 7 20 80 0 73 2 80 20 80 17
0 20 7 20 40 l0 40 40 0 40 0 0 40 c0 33 3 40 20 40 17 0 20 7 20 40 0 33 3
40 20 40 17 0 20 7 20 40 0 33 3 40 20 40 18 0 20 7 20 60 0 53 2 60 20 60 18
0 20 7 20 60 0 53 2 60 20 60 19 0 20 7 20 120 0 113 -1 120 -20 120 -17 0
-20 7 -20 40 0 33 -3 40 -20 40 -19 0 -20 7 -20 120 0 113 1 120 20 120 18 0
20 7 20 60 0 53 2 60 20 60 18 0 20 7 20 80 0 73 2 80 20 80 19 0 20 7 20 140
0 133 -1 140 -20 140 -18 0 -20 7 -20 60 0 53 -2 60 -20 60 -17 0 -20 7 -20
40 0 33 -3 40 -20 40 -18 0 -20 7 -20 60 0 53 -2 60 -20 60 -13 0 -20 7 -20
20 0 13 -7 20 -20 20 -17 0 -20 7 -20 40 0 33 -3 40 -20 40 -17 0 -20 7 -20
40 0 33 -3 40 -20 40 -13 0 -20 7 -20 20 0 13 -7 20 -20 20 -13 0 -20 7 -20
20 0 13 -7 20 -20 20 -17 0 -20 7 -20 40 0 33 -3 40 -20 40 -13 0 -20 7 -20
20 0 13 -7 20 -20 20 -13 0 -20 7 -20 20 0 13 -7 20 -20 20 -17 0 -20 7 -20
40 0 33 -3 40 -20 40 -13 0 -20 7 -20 20 0 13 -7 20 -20 20 -13 0 -20 7 -20
20 0 17 -7 20 -40 20 -33 0 -40 3 -40 20 0 13 -7 20 -20 20 -13 0 -20 7 -20
20 0 17 -7 20 -40 20 -33 0 -40 3 -40 20 0 17 -7 20 -40 20 -33 0 -40 3 -40
20 0 18 -7 20 -60 20 -53 0 -60 2 -60 20 0 17 -7 20 -40 20 -33 0 -40 3 -40
20 0 19 -7 20 -140 20 -133 0 -140 1 -140 20 0 19 -7 20 -160 20 -153 0 -160
-1 -160 -20z m320 -40 c0 -19 7 -20 140 -20 133 0 140 -1 140 -20 0 -17 7 -20
40 -20 33 0 40 -3 40 -20 0 -17 7 -20 40 -20 33 0 40 -3 40 -20 0 -13 7 -20
20 -20 18 0 20 -7 20 -60 0 -53 -2 -60 -20 -60 -13 0 -20 7 -20 20 0 13 -7 20
-20 20 -13 0 -20 7 -20 20 0 13 -7 20 -20 20 -13 0 -20 -7 -20 -20 0 -17 -7
-20 -40 -20 l-40 0 0 40 0 40 -40 0 c-33 0 -40 3 -40 20 0 17 -7 20 -40 20
-33 0 -40 3 -40 20 0 13 -7 20 -20 20 -17 0 -20 -7 -20 -40 l0 -40 -40 0 c-33
0 -40 -3 -40 -20 0 -13 7 -20 20 -20 13 0 20 -7 20 -20 0 -13 7 -20 20 -20 13
0 20 -7 20 -20 0 -17 7 -20 40 -20 l40 0 0 40 c0 33 3 40 20 40 13 0 20 -7 20
-20 0 -13 7 -20 20 -20 13 0 20 -7 20 -20 0 -17 -7 -20 -40 -20 -33 0 -40 -3
-40 -20 0 -13 7 -20 20 -20 13 0 20 -7 20 -20 0 -13 7 -20 20 -20 13 0 20 -7
20 -20 0 -17 -7 -20 -40 -20 -33 0 -40 3 -40 20 0 17 -7 20 -40 20 -33 0 -40
3 -40 20 0 13 -7 20 -20 20 -17 0 -20 7 -20 40 l0 40 -40 0 c-33 0 -40 3 -40
20 0 13 -7 20 -20 20 -13 0 -20 7 -20 20 0 17 -7 20 -40 20 -33 0 -40 -3 -40
-20 0 -17 -7 -20 -40 -20 -33 0 -40 3 -40 20 0 13 -7 20 -20 20 -17 0 -20 -7
-20 -40 0 -33 -3 -40 -20 -40 -18 0 -20 -7 -20 -60 l0 -60 -40 0 c-33 0 -40
-3 -40 -20 0 -18 7 -20 60 -20 53 0 60 -2 60 -20 0 -17 7 -20 40 -20 33 0 40
-3 40 -20 0 -17 7 -20 40 -20 33 0 40 -3 40 -20 0 -13 -7 -20 -20 -20 -13 0
-20 -7 -20 -20 0 -17 -7 -20 -40 -20 -33 0 -40 3 -40 20 0 17 -7 20 -40 20
-33 0 -40 3 -40 20 0 19 -7 20 -120 20 l-120 0 0 -40 0 -40 60 0 c53 0 60 -2
60 -20 0 -13 -7 -20 -20 -20 -13 0 -20 -7 -20 -20 0 -18 -7 -20 -60 -20 -53 0
-60 -2 -60 -20 0 -13 7 -20 20 -20 13 0 20 -7 20 -20 0 -18 -7 -20 -60 -20
-53 0 -60 -2 -60 -20 0 -18 -7 -20 -60 -20 -53 0 -60 -2 -60 -20 0 -13 -7 -20
-20 -20 -13 0 -20 -7 -20 -20 0 -13 -7 -20 -20 -20 -13 0 -20 -7 -20 -20 0
-17 -7 -20 -40 -20 -33 0 -40 -3 -40 -20 0 -13 -7 -20 -20 -20 -13 0 -20 7
-20 20 0 13 7 20 20 20 13 0 20 7 20 20 0 13 7 20 20 20 13 0 20 7 20 20 0 13
7 20 20 20 13 0 20 7 20 20 0 13 7 20 20 20 13 0 20 7 20 20 0 13 7 20 20 20
13 0 20 7 20 20 0 17 7 20 40 20 33 0 40 -3 40 -20 0 -13 7 -20 20 -20 13 0
20 7 20 20 0 13 7 20 20 20 13 0 20 7 20 20 0 13 -7 20 -20 20 -13 0 -20 7
-20 20 0 13 -7 20 -20 20 -13 0 -20 7 -20 20 0 13 -7 20 -20 20 -13 0 -20 7
-20 20 0 17 -7 20 -40 20 -33 0 -40 3 -40 20 0 13 7 20 20 20 13 0 20 7 20 20
0 13 7 20 20 20 13 0 20 7 20 20 0 13 7 20 20 20 13 0 20 7 20 20 0 13 7 20
20 20 17 0 20 7 20 40 0 33 -3 40 -20 40 -13 0 -20 -7 -20 -20 0 -13 -7 -20
-20 -20 -13 0 -20 -7 -20 -20 0 -13 -7 -20 -20 -20 -13 0 -20 -7 -20 -20 0
-13 -7 -20 -20 -20 -13 0 -20 -7 -20 -20 0 -13 -7 -20 -20 -20 -17 0 -20 -7
-20 -40 l0 -40 -60 0 -60 0 0 -40 0 -40 -40 0 -40 0 0 40 0 40 40 0 c33 0 40
3 40 20 0 13 7 20 20 20 13 0 20 7 20 20 0 13 7 20 20 20 13 0 20 7 20 20 0
13 7 20 20 20 13 0 20 7 20 20 0 13 7 20 20 20 17 0 20 7 20 40 l0 40 40 0
c33 0 40 3 40 20 0 13 7 20 20 20 13 0 20 7 20 20 0 13 7 20 20 20 13 0 20 7
20 20 0 17 7 20 40 20 33 0 40 3 40 20 0 17 7 20 40 20 l40 0 0 40 0 40 100 0
c93 0 100 1 100 20 0 19 7 20 160 20 153 0 160 -1 160 -20z m-120 -280 c0 -13
7 -20 20 -20 13 0 20 -7 20 -20 0 -13 7 -20 20 -20 13 0 20 -7 20 -20 0 -17 7
-20 40 -20 33 0 40 -3 40 -20 0 -13 7 -20 20 -20 13 0 20 -7 20 -20 0 -13 7
-20 20 -20 13 0 20 -7 20 -20 0 -13 7 -20 20 -20 13 0 20 -7 20 -20 0 -13 -7
-20 -20 -20 -13 0 -20 7 -20 20 0 17 -7 20 -40 20 -33 0 -40 3 -40 20 0 13 -7
20 -20 20 -13 0 -20 7 -20 20 0 17 -7 20 -40 20 -33 0 -40 3 -40 20 0 13 -7
20 -20 20 -13 0 -20 7 -20 20 0 13 -7 20 -20 20 -17 0 -20 7 -20 40 0 33 3 40
20 40 13 0 20 -7 20 -20z m1040 -200 c0 -13 -7 -20 -20 -20 -13 0 -20 7 -20
20 0 13 7 20 20 20 13 0 20 -7 20 -20z m-1760 -80 c0 -13 -7 -20 -20 -20 -13
0 -20 7 -20 20 0 13 7 20 20 20 13 0 20 -7 20 -20z m640 -40 c0 -17 -7 -20
-40 -20 -33 0 -40 3 -40 20 0 17 7 20 40 20 33 0 40 -3 40 -20z m-920 -40 c0
-13 -7 -20 -20 -20 -13 0 -20 7 -20 20 0 13 7 20 20 20 13 0 20 -7 20 -20z
m80 0 c0 -13 -7 -20 -20 -20 -13 0 -20 7 -20 20 0 13 7 20 20 20 13 0 20 -7
20 -20z m1200 -40 c0 -19 7 -20 160 -20 153 0 160 1 160 20 0 19 7 20 120 20
113 0 120 -1 120 -20 0 -17 7 -20 40 -20 33 0 40 -3 40 -20 0 -13 7 -20 20
-20 13 0 20 -7 20 -20 0 -13 7 -20 20 -20 13 0 20 -7 20 -20 0 -13 7 -20 20
-20 18 0 20 -7 20 -60 0 -53 2 -60 20 -60 17 0 20 -7 20 -40 0 -33 3 -40 20
-40 17 0 20 -7 20 -40 0 -33 3 -40 20 -40 18 0 20 -7 20 -80 0 -73 2 -80 20
-80 19 0 20 -7 20 -200 l0 -200 -100 0 c-93 0 -100 1 -100 20 0 19 -7 20 -140
20 -133 0 -140 1 -140 20 0 13 -7 20 -20 20 -13 0 -20 -7 -20 -20 0 -19 -7
-20 -100 -20 -93 0 -100 -1 -100 -20 0 -19 -7 -20 -120 -20 -113 0 -120 1
-120 20 0 18 -7 20 -80 20 -73 0 -80 2 -80 20 0 17 -7 20 -40 20 -33 0 -40 3
-40 20 0 17 -7 20 -40 20 -33 0 -40 3 -40 20 0 19 -7 20 -160 20 -153 0 -160
-1 -160 -20 0 -18 -7 -20 -60 -20 -53 0 -60 -2 -60 -20 0 -13 -7 -20 -20 -20
-13 0 -20 -7 -20 -20 0 -19 -7 -20 -140 -20 -133 0 -140 -1 -140 -20 0 -17 -7
-20 -40 -20 -33 0 -40 3 -40 20 0 13 7 20 20 20 19 0 20 7 20 100 0 93 1 100
20 100 19 0 20 7 20 240 l0 240 40 0 c33 0 40 3 40 20 0 13 7 20 20 20 13 0
20 7 20 20 0 13 7 20 20 20 13 0 20 7 20 20 0 18 7 20 60 20 53 0 60 2 60 20
0 18 7 20 60 20 53 0 60 2 60 20 0 18 7 20 60 20 53 0 60 2 60 20 0 19 7 20
160 20 153 0 160 1 160 20 0 19 7 20 140 20 133 0 140 -1 140 -20z m-1280 -40
c0 -13 7 -20 20 -20 17 0 20 -7 20 -40 0 -33 -3 -40 -20 -40 -13 0 -20 -7 -20
-20 0 -13 -7 -20 -20 -20 -13 0 -20 -7 -20 -20 0 -13 7 -20 20 -20 13 0 20 -7
20 -20 0 -13 7 -20 20 -20 13 0 20 7 20 20 0 13 7 20 20 20 19 0 20 -7 20
-260 0 -253 -1 -260 -20 -260 -13 0 -20 7 -20 20 0 13 -7 20 -20 20 -13 0 -20
-7 -20 -20 0 -17 -7 -20 -40 -20 l-40 0 0 60 c0 53 -2 60 -20 60 -13 0 -20 -7
-20 -20 0 -13 -7 -20 -20 -20 -17 0 -20 -7 -20 -40 0 -33 -3 -40 -20 -40 -18
0 -20 7 -20 60 0 53 2 60 20 60 13 0 20 7 20 20 0 13 7 20 20 20 17 0 20 7 20
40 0 33 -3 40 -20 40 -13 0 -20 -7 -20 -20 0 -13 -7 -20 -20 -20 -19 0 -20 7
-20 120 0 113 1 120 20 120 18 0 20 7 20 60 0 53 2 60 20 60 17 0 20 7 20 40
0 33 3 40 20 40 17 0 20 7 20 40 l0 40 40 0 c33 0 40 -3 40 -20z m2200 0 c0
-13 -7 -20 -20 -20 -13 0 -20 7 -20 20 0 13 7 20 20 20 13 0 20 -7 20 -20z
m40 -80 c0 -13 7 -20 20 -20 13 0 20 -7 20 -20 0 -13 -7 -20 -20 -20 -13 0
-20 7 -20 20 0 13 -7 20 -20 20 -13 0 -20 7 -20 20 0 13 7 20 20 20 13 0 20
-7 20 -20z m-1560 -900 c0 -33 -3 -40 -20 -40 -17 0 -20 7 -20 40 0 33 3 40
20 40 17 0 20 -7 20 -40z m1280 -40 l0 -40 -40 0 c-33 0 -40 3 -40 20 0 18 -7
20 -80 20 -73 0 -80 2 -80 20 0 19 7 20 120 20 l120 0 0 -40z m-1520 -60 l0
-60 40 0 c33 0 40 3 40 20 0 13 7 20 20 20 13 0 20 -7 20 -20 0 -18 7 -20 80
-20 73 0 80 -2 80 -20 0 -18 7 -20 80 -20 73 0 80 -2 80 -20 0 -17 7 -20 40
-20 33 0 40 3 40 20 0 13 7 20 20 20 18 0 20 7 20 60 0 53 2 60 20 60 13 0 20
7 20 20 0 13 7 20 20 20 13 0 20 -7 20 -20 0 -13 7 -20 20 -20 13 0 20 -7 20
-20 0 -13 -7 -20 -20 -20 -18 0 -20 -7 -20 -80 0 -73 -2 -80 -20 -80 -13 0
-20 -7 -20 -20 0 -13 -7 -20 -20 -20 -13 0 -20 -7 -20 -20 0 -19 -7 -20 -240
-20 -233 0 -240 1 -240 20 0 13 -7 20 -20 20 -13 0 -20 7 -20 20 0 13 -7 20
-20 20 -13 0 -20 7 -20 20 0 13 -7 20 -20 20 -18 0 -20 7 -20 60 0 53 -2 60
-20 60 -17 0 -20 7 -20 40 l0 40 40 0 40 0 0 -60z m920 -20 c0 -73 2 -80 20
-80 19 0 20 -7 20 -120 0 -113 1 -120 20 -120 19 0 20 -7 20 -160 0 -153 -1
-160 -20 -160 -13 0 -20 -7 -20 -20 0 -13 -7 -20 -20 -20 -13 0 -20 -7 -20
-20 0 -13 -7 -20 -20 -20 -13 0 -20 -7 -20 -20 0 -19 7 -20 120 -20 113 0 120
1 120 20 0 13 7 20 20 20 17 0 20 7 20 40 0 33 3 40 20 40 17 0 20 7 20 40 0
33 -3 40 -20 40 -18 0 -20 7 -20 60 0 53 -2 60 -20 60 -17 0 -20 7 -20 40 l0
40 280 0 c273 0 280 0 280 20 0 13 7 20 20 20 13 0 20 7 20 20 0 17 7 20 40
20 33 0 40 3 40 20 0 13 7 20 20 20 17 0 20 7 20 40 0 33 3 40 20 40 13 0 20
-7 20 -20 0 -13 7 -20 20 -20 19 0 20 -7 20 -120 0 -113 -1 -120 -20 -120 -18
0 -20 -7 -20 -60 0 -53 -2 -60 -20 -60 -18 0 -20 -7 -20 -60 0 -53 -2 -60 -20
-60 -17 0 -20 -7 -20 -40 0 -33 -3 -40 -20 -40 -17 0 -20 -7 -20 -40 0 -33 -3
-40 -20 -40 -13 0 -20 -7 -20 -20 0 -13 -7 -20 -20 -20 -17 0 -20 7 -20 40 0
33 3 40 20 40 13 0 20 7 20 20 0 17 -7 20 -40 20 l-40 0 0 -40 c0 -33 -3 -40
-20 -40 -13 0 -20 -7 -20 -20 0 -17 -7 -20 -40 -20 -33 0 -40 -3 -40 -20 0
-13 -7 -20 -20 -20 -13 0 -20 -7 -20 -20 0 -13 -7 -20 -20 -20 -13 0 -20 7
-20 20 0 13 -7 20 -20 20 -13 0 -20 7 -20 20 0 17 -7 20 -40 20 -33 0 -40 -3
-40 -20 0 -13 -7 -20 -20 -20 -13 0 -20 7 -20 20 0 18 -7 20 -60 20 -53 0 -60
-2 -60 -20 0 -17 -7 -20 -40 -20 -33 0 -40 -3 -40 -20 0 -13 7 -20 20 -20 13
0 20 -7 20 -20 0 -13 7 -20 20 -20 13 0 20 -7 20 -20 0 -18 -7 -20 -60 -20
-53 0 -60 -2 -60 -20 0 -19 -7 -20 -160 -20 -153 0 -160 -1 -160 -20 0 -13 -7
-20 -20 -20 -13 0 -20 7 -20 20 0 19 -7 20 -100 20 -93 0 -100 -1 -100 -20 0
-18 7 -20 80 -20 73 0 80 -2 80 -20 0 -19 7 -20 140 -20 l140 0 0 -40 0 -40
40 0 c33 0 40 3 40 20 0 17 7 20 40 20 33 0 40 3 40 20 0 17 7 20 40 20 33 0
40 3 40 20 0 17 7 20 40 20 l40 0 0 -40 c0 -33 -3 -40 -20 -40 -17 0 -20 -7
-20 -40 0 -33 -3 -40 -20 -40 -13 0 -20 -7 -20 -20 0 -13 -7 -20 -20 -20 -13
0 -20 -7 -20 -20 0 -17 -7 -20 -40 -20 l-40 0 0 -60 c0 -53 -2 -60 -20 -60
-13 0 -20 -7 -20 -20 0 -13 -7 -20 -20 -20 -18 0 -20 -7 -20 -80 l0 -80 -60 0
c-53 0 -60 -2 -60 -20 0 -17 -7 -20 -40 -20 -33 0 -40 -3 -40 -20 0 -18 -7
-20 -60 -20 -53 0 -60 2 -60 20 0 17 -7 20 -40 20 -33 0 -40 -3 -40 -20 0 -17
-7 -20 -40 -20 l-40 0 0 40 0 40 -40 0 c-33 0 -40 3 -40 20 0 13 -7 20 -20 20
-13 0 -20 -7 -20 -20 0 -17 -7 -20 -40 -20 -33 0 -40 3 -40 20 0 13 7 20 20
20 13 0 20 7 20 20 0 13 7 20 20 20 13 0 20 7 20 20 0 13 7 20 20 20 18 0 20
7 20 80 0 73 -2 80 -20 80 -13 0 -20 7 -20 20 0 13 -7 20 -20 20 -13 0 -20 7
-20 20 0 13 -7 20 -20 20 -13 0 -20 7 -20 20 0 13 -7 20 -20 20 -18 0 -20 7
-20 60 0 53 -2 60 -20 60 -13 0 -20 7 -20 20 0 13 -7 20 -20 20 -18 0 -20 7
-20 60 0 53 2 60 20 60 13 0 20 7 20 20 0 17 -7 20 -40 20 l-40 0 0 -60 c0
-53 -2 -60 -20 -60 -17 0 -20 -7 -20 -40 l0 -40 40 0 c33 0 40 -3 40 -20 0
-13 -7 -20 -20 -20 -17 0 -20 -7 -20 -40 l0 -40 -60 0 c-53 0 -60 -2 -60 -20
0 -13 -7 -20 -20 -20 -13 0 -20 -7 -20 -20 0 -13 -7 -20 -20 -20 -13 0 -20 7
-20 20 0 17 -7 20 -40 20 -33 0 -40 3 -40 20 0 17 -7 20 -40 20 -33 0 -40 3
-40 20 0 17 7 20 40 20 33 0 40 3 40 20 0 18 -7 20 -60 20 l-60 0 0 60 c0 53
-2 60 -20 60 -19 0 -20 7 -20 140 0 133 -1 140 -20 140 -13 0 -20 7 -20 20 0
13 -7 20 -20 20 -13 0 -20 7 -20 20 0 13 -7 20 -20 20 -13 0 -20 -7 -20 -20 0
-18 -7 -20 -60 -20 -53 0 -60 2 -60 20 0 17 -7 20 -40 20 -33 0 -40 3 -40 20
0 13 -7 20 -20 20 -13 0 -20 7 -20 20 0 13 -7 20 -20 20 -18 0 -20 7 -20 60 0
53 -2 60 -20 60 -19 0 -20 7 -20 100 0 93 -1 100 -20 100 -19 0 -20 7 -20 120
0 113 1 120 20 120 18 0 20 7 20 60 l0 60 80 0 c73 0 80 -2 80 -20 0 -13 7
-20 20 -20 13 0 20 -7 20 -20 0 -13 7 -20 20 -20 13 0 20 -7 20 -20 0 -13 7
-20 20 -20 13 0 20 -7 20 -20 0 -17 7 -20 40 -20 l40 0 0 60 c0 53 2 60 20 60
13 0 20 7 20 20 0 18 7 20 80 20 73 0 80 -2 80 -20 0 -13 7 -20 20 -20 13 0
20 -7 20 -20 0 -13 7 -20 20 -20 17 0 20 -7 20 -40 0 -33 3 -40 20 -40 17 0
20 -7 20 -40 0 -33 3 -40 20 -40 13 0 20 -7 20 -20 0 -13 7 -20 20 -20 13 0
20 -7 20 -20 0 -17 7 -20 40 -20 33 0 40 -3 40 -20 0 -19 7 -20 260 -20 253 0
260 1 260 20 0 17 7 20 40 20 l40 0 0 40 c0 33 3 40 20 40 13 0 20 7 20 20 0
13 7 20 20 20 18 0 20 7 20 60 0 53 2 60 20 60 18 0 20 7 20 60 l0 60 60 0 60
0 0 -80z m680 60 c0 -13 -7 -20 -20 -20 -13 0 -20 7 -20 20 0 13 7 20 20 20
13 0 20 -7 20 -20z m80 -120 c0 -13 7 -20 20 -20 17 0 20 -7 20 -40 0 -33 -3
-40 -20 -40 -13 0 -20 -7 -20 -20 0 -13 -7 -20 -20 -20 -13 0 -20 -7 -20 -20
0 -13 -7 -20 -20 -20 -13 0 -20 -7 -20 -20 0 -19 -7 -20 -200 -20 -193 0 -200
1 -200 20 0 17 7 20 40 20 33 0 40 3 40 20 0 13 -7 20 -20 20 -17 0 -20 7 -20
40 l0 40 100 0 c93 0 100 1 100 20 0 17 7 20 40 20 33 0 40 -3 40 -20 0 -17 7
-20 40 -20 l40 0 0 40 0 40 40 0 c33 0 40 -3 40 -20z m-1240 -1680 c0 -13 -7
-20 -20 -20 -13 0 -20 7 -20 20 0 13 7 20 20 20 13 0 20 -7 20 -20z"/>
<path d="M1340 3500 c0 -13 -7 -20 -20 -20 -13 0 -20 -7 -20 -20 0 -17 7 -20
40 -20 33 0 40 3 40 20 0 13 7 20 20 20 13 0 20 7 20 20 0 17 -7 20 -40 20
-33 0 -40 -3 -40 -20z"/>
<path d="M1340 3340 c0 -13 7 -20 20 -20 13 0 20 7 20 20 0 13 -7 20 -20 20
-13 0 -20 -7 -20 -20z"/>
<path d="M1420 3300 c0 -13 -7 -20 -20 -20 -13 0 -20 -7 -20 -20 0 -13 7 -20
20 -20 13 0 20 7 20 20 0 17 7 20 40 20 33 0 40 3 40 20 0 17 -7 20 -40 20
-33 0 -40 -3 -40 -20z"/>
<path d="M3020 1280 c0 -33 3 -40 20 -40 17 0 20 7 20 40 0 33 -3 40 -20 40
-17 0 -20 -7 -20 -40z"/>
<path d="M1940 1200 l0 -40 60 0 60 0 0 40 0 40 -60 0 -60 0 0 -40z"/>
<path d="M1060 1000 c0 -33 -3 -40 -20 -40 -13 0 -20 -7 -20 -20 0 -17 7 -20
40 -20 33 0 40 3 40 20 0 13 7 20 20 20 17 0 20 7 20 40 l0 40 -40 0 -40 0 0
-40z"/>
<path d="M1700 980 c0 -13 7 -20 20 -20 13 0 20 7 20 20 0 13 -7 20 -20 20
-13 0 -20 -7 -20 -20z"/>
<path d="M1500 940 c0 -17 7 -20 40 -20 33 0 40 -3 40 -20 0 -13 7 -20 20 -20
17 0 20 7 20 40 l0 40 -60 0 c-53 0 -60 -2 -60 -20z"/>
<path d="M2100 940 c0 -13 7 -20 20 -20 13 0 20 7 20 20 0 13 -7 20 -20 20
-13 0 -20 -7 -20 -20z"/>
<path d="M1580 820 c0 -17 7 -20 40 -20 33 0 40 -3 40 -20 0 -17 7 -20 40 -20
33 0 40 3 40 20 0 13 -7 20 -20 20 -13 0 -20 7 -20 20 0 18 -7 20 -60 20 -53
0 -60 -2 -60 -20z"/>
<path d="M1260 720 c0 -33 3 -40 20 -40 17 0 20 7 20 40 0 33 -3 40 -20 40
-17 0 -20 -7 -20 -40z"/>
</g>
</svg>
